<svg id="Camada_2" data-name="Camada 2" xmlns="http://www.w3.org/2000/svg" viewBox="0 0 8989.5 2858.28"><title>logo</title><path d="M3354.49,2768.34A286.18,286.18,0,0,0,3200,2515.58q-4-2.07-8.07-4l-444.74-256.77-90.53-52.27,11.66-20.2,93-161.07,65.44-113.34a288.51,288.51,0,0,0,35.27,2.17,285.72,285.72,0,0,0,285.72-285.72c0-105.27-56.94-197.22-141.69-246.79a284.37,284.37,0,0,0-144-38.92c-116.95,0-217.46,70.27-261.68,170.88a285.95,285.95,0,0,0,36,290.1l-128,221.63-29.61,51.29L2467,2093l-15.19-8.77L2375.13,2040l-32.46-18.74-421.82-243.54q-6.85-4.21-13.94-8a286,286,0,0,0-278.62,4.24c-85.27,49.44-142.62,141.69-142.62,247.34v635.91H1148a286.8,286.8,0,0,0-120.88-137.42A283.87,283.87,0,0,0,915,2483.17a288.83,288.83,0,0,0-30.8-1.66c-157.8,0-285.72,127.92-285.72,285.72,0,.37,0,.74,0,1.11.6,157.28,128.28,284.61,285.7,284.61a288.87,288.87,0,0,0,30.56-1.63,283.87,283.87,0,0,0,112.3-36.6,286.78,286.78,0,0,0,121.33-138.53h337.26v641.47c0,105.46,57.14,197.56,142.14,247.06A285.35,285.35,0,0,0,1934.88,3752l407.79-235.44,39-22.53,70.08-40.46,15.32-8.85,10.79,18.69,30.69,53.15,126.67,219.4a285.95,285.95,0,0,0-35.9,290.41c44.29,100.45,144.72,170.57,261.54,170.57a284.37,284.37,0,0,0,143.9-38.85c84.82-49.55,141.82-141.55,141.82-246.87a285.72,285.72,0,0,0-285.72-285.72,288.5,288.5,0,0,0-35.27,2.17l-64.15-111.12-93.93-162.69-10.77-18.66,85.7-49.48,440.32-254.22q8.75-3.81,17.18-8.17a286.19,286.19,0,0,0,154.53-253.87C3354.5,2769.08,3354.49,2768.71,3354.49,2768.34ZM3043,2858.42l-13.88,8-94.06,54.3-74.61,43.07-408.38,235.78-.28.16-406.63,234.77-74.34,42.92-65.78,38-23.6,13.63-26.1,15.07a109.54,109.54,0,0,1-150.63-101.52V2093a109.55,109.55,0,0,1,150.63-101.51l26.1,15.07,23.6,13.63,63.33,36.57,77.07,44.5,406.35,234.61.28.16,409,236.16,74.47,43,93.52,54,13.88,8a109.39,109.39,0,0,1,48,90.09c0,.19,0,.37,0,.56A109.39,109.39,0,0,1,3043,2858.42Z" transform="translate(-598.5 -1338.64)" style="fill:#fff"/><path d="M4905,2284.74c14.59-21.89,33.56-33.57,58.37-33.57,37.94,0,65.67,30.65,64.21,67.13a73.39,73.39,0,0,1-11.67,39.4l-350.24,488.88v372.13a65.4,65.4,0,0,1-65.67,65.67c-36.48,0-67.13-29.19-67.13-65.67V2846.59l-348.78-488.88a73.39,73.39,0,0,1-11.67-39.4c-1.46-36.48,26.27-67.13,64.21-67.13,24.81,0,43.78,11.67,58.37,33.57l305,443.64Z" transform="translate(-598.5 -1338.64)" style="fill:#fff"/><path d="M6130.81,2767.78c-5.84,305-201.39,523.9-512.23,523.9-312.3,0-506.39-218.9-512.23-523.9,5.84-305,199.93-523.9,512.23-523.9C5929.42,2243.88,6125,2462.78,6130.81,2767.78Zm-132.8,0c0-224.74-138.64-399.86-379.43-399.86-242.25,0-379.43,175.12-379.43,399.86s137.18,399.86,379.43,399.86C5859.38,3167.64,5998,2992.52,5998,2767.78Z" transform="translate(-598.5 -1338.64)" style="fill:#fff"/><path d="M7181.52,2318.31v576.44c0,274.36-223.28,396.94-418.83,396.94s-418.83-122.58-418.83-396.94V2318.31c0-36.48,29.19-67.13,65.67-67.13s67.13,30.65,67.13,67.13v580.82c0,182.42,143,271.44,286,271.44s286-89,286-271.44V2318.31c0-36.48,29.19-67.13,65.67-67.13S7181.52,2281.82,7181.52,2318.31Z" transform="translate(-598.5 -1338.64)" style="fill:#fff"/><path d="M8152,3007.11c0,164.9-147.39,284.57-373.59,284.57-145.93,0-262.68-33.56-347.32-70-21.89-8.76-40.86-33.56-40.86-59.83,0-32.11,23.35-61.29,59.83-61.29a67.67,67.67,0,0,1,27.73,5.84c65.67,29.19,162,59.83,287.49,59.83,144.47,0,255.38-40.86,255.38-167.82,0-216-620.22-96.32-620.22-455.31,0-162,131.34-299.16,378-299.16,113.83,0,211.6,19,290.41,48.16,20.43,7.3,40.86,23.35,40.86,58.37,0,29.19-21.89,61.29-58.37,61.29-7.3,0-16.05-2.92-23.35-5.84a712.73,712.73,0,0,0-235-39.4c-147.39,0-259.76,56.91-259.76,166.36C7533.21,2785.29,8152,2621.85,8152,3007.11Z" transform="translate(-598.5 -1338.64)" style="fill:#fff"/><path d="M8489.07,2318.31v900.41c0,36.48-30.65,65.67-67.13,65.67a65.4,65.4,0,0,1-65.67-65.67V2318.31c0-36.48,29.19-67.13,65.67-67.13S8489.07,2281.82,8489.07,2318.31Z" transform="translate(-598.5 -1338.64)" style="fill:#fff"/><path d="M9587.94,3148.67c-1.46,27.73-13.13,42.32-32.11,52.54-90.48,51.08-189.71,90.48-332.73,90.48-290.41,0-510.77-198.47-510.77-523.9s220.36-523.9,510.77-523.9c143,0,242.25,39.4,332.73,90.48,19,10.21,30.65,24.81,32.11,52.54,1.46,30.65-21.89,58.37-58.37,58.37-7.3,0-17.51-1.46-26.27-5.84-77.34-40.86-153.23-68.59-267.06-68.59-258.3,0-391.1,172.2-391.1,396.94s132.8,396.94,391.1,396.94c113.83,0,189.71-27.73,267.06-68.59,8.76-4.38,19-5.84,26.27-5.84C9566,3090.3,9589.39,3118,9587.94,3148.67Z" transform="translate(-598.5 -1338.64)" style="fill:#fff"/></svg>